# xmcd CD database file
#
# Track frame offsets:
#	150
#	25192
#	49472
#	73740
#	102185
#	133840
#	159085
#
# Disc length: 2610 seconds
#
# Revision: 1
# Processed by: cddbd v1.4PL0 Copyright (c) Steve Scherf et al.
# Submitted via: CDex 1.51
#
DISCID=5b0a3007
DTITLE=Mitchell Red - Presenting Red Mitchell
DYEAR=1957
DGENRE=Jazz
TTITLE0=Scrapple From The Apple
TTITLE1=Rainy Night
TTITLE2=I Thought Of You
TTITLE3=Out Of The Blue
TTITLE4=Paul's Pal
TTITLE5=Sandu
TTITLE6=Cheek To Cheek
EXTD=YEAR: 1957
EXTT0=
EXTT1=
EXTT2=
EXTT3=
EXTT4=
EXTT5=
EXTT6=
PLAYORDER=
